<svg id="Capa_1" data-name="Capa 1" xmlns="http://www.w3.org/2000/svg" viewBox="0 0 1305.76 1720.65"><title>Mesa de trabajo 4</title><path d="M201.16,261.32a14.64,14.64,0,0,1-6.86,11.21.1.1,0,0,1-.08.05,7.17,7.17,0,0,1-.93.53l-.06,0a14.26,14.26,0,0,1-2.09.89l-.15,0a0,0,0,0,0,0,0l-.33.1a14.06,14.06,0,0,1-2.16.47h0a14.42,14.42,0,0,1-3.29.08,14.75,14.75,0,0,1-.55-29.34,12.83,12.83,0,0,1,1.38-.11,14.07,14.07,0,0,1,1.71,0,14.67,14.67,0,0,1,4.05.93A14.42,14.42,0,0,1,195,248c.33.23.64.47.95.73a14.82,14.82,0,0,1,1.93,2A14.66,14.66,0,0,1,201.16,261.32Z" fill="#d6802b"/><path d="M199.53,238.33c-.66,1-1.28,2.11-1.85,3.21h0c-.51,1-1,2-1.41,3-.09.21-.18.43-.26.65s-.2.48-.29.72c-.26.68-.51,1.37-.74,2.08a14.42,14.42,0,0,0-3.19-1.72,14.67,14.67,0,0,0-4.05-.93,14.07,14.07,0,0,0-1.71,0,97.17,97.17,0,0,1,4.5,16,45.37,45.37,0,0,1,.7,12c0,.25-.05.49-.08.73a14.26,14.26,0,0,0,2.09-.89c.05-.8.12-1.58.19-2.35l-.13,2.31a7.17,7.17,0,0,0,.93-.53c0,.05,0,.1.05.15l0-.2,3.3-21.2c.09-.22.17-.44.25-.65.6-1.49,1.18-2.75,1.71-3.79,1.88-3.65,3.26-4.77,3.26-4.77l1.16-.9A28.83,28.83,0,0,1,199.53,238.33Z" fill="#a85d23"/><rect x="517.86" y="267.82" width="687.92" height="630.18" fill="#395da3"/><polygon points="520.71 294.91 1206.14 294.2 1206.49 446.04 519.29 317.72 520.71 294.91" fill="#2a3c62"/><path d="M620.4,148.77h501.39A133.19,133.19,0,0,1,1255,282V294.2a0,0,0,0,1,0,0H487.21a0,0,0,0,1,0,0V282A133.19,133.19,0,0,1,620.4,148.77Z" fill="#c84348"/><rect x="623.37" y="45.41" width="28.51" height="141.15" fill="#d6802b"/><rect x="1096.64" y="43.44" width="28.51" height="141.15" fill="#d6802b"/><rect x="759.52" y="342.34" width="87.07" height="87.07" fill="#d6802b"/><rect x="868.33" y="342.34" width="87.07" height="87.07" fill="#d6802b"/><rect x="978.25" y="342.34" width="87.07" height="87.07" fill="#d6802b"/><rect x="1089.29" y="342.34" width="87.07" height="87.07" fill="#d6802b"/><rect x="977.81" y="674.11" width="87.07" height="87.07" fill="#d6802b"/><rect x="1089.48" y="674.11" width="87.07" height="87.07" fill="#d6802b"/><rect x="759.52" y="453.49" width="87.07" height="87.07" fill="#d6802b"/><rect x="868.33" y="453.49" width="87.07" height="87.07" fill="#d6802b"/><rect x="978.25" y="453.49" width="87.07" height="87.07" fill="#d6802b"/><rect x="1089.29" y="453.49" width="87.07" height="87.07" fill="#d6802b"/><rect x="758.89" y="564.38" width="87.07" height="87.07" fill="#d6802b"/><rect x="867.7" y="562.95" width="87.07" height="87.07" fill="#d6802b"/><rect x="538.02" y="673.75" width="87.07" height="87.07" fill="#d6802b"/><rect x="647.23" y="674.46" width="87.07" height="87.07" fill="#d6802b"/><rect x="977.54" y="563.84" width="87.07" height="87.07" fill="#d6802b"/><rect x="1089.29" y="564.55" width="87.07" height="87.07" fill="#d6802b"/><rect x="760.56" y="673.97" width="87.07" height="87.07" fill="#d6802b"/><rect x="868.66" y="673.74" width="87.07" height="87.07" fill="#d6802b"/><rect x="537.03" y="563.96" width="87.07" height="87.07" fill="#d6802b"/><rect x="647.66" y="563.96" width="87.07" height="87.07" fill="#d6802b"/><rect x="647.24" y="454.36" width="87.07" height="87.07" fill="#d6802b"/><rect x="537.81" y="453.8" width="87.07" height="87.07" fill="#d6802b"/><polygon points="400.11 241.75 515.1 94.38 391.41 112.29 400.11 241.75" fill="#d6802b"/><path d="M546,176.22S977,304.53,1251.76,254.28A119.75,119.75,0,0,1,1255,294.2H487.21s-5-58.7,27.8-93.39c0,0,11.41-15.68,26.61-26.14Z" fill="#962b35"/><polygon points="623.37 45.41 651.88 149.01 651.88 186.55 623.37 186.55 623.37 45.41" fill="#a85d23"/><polygon points="1096.64 43.44 1125.16 184.58 1096.64 184.58 1096.64 43.44" fill="#a85d23"/><polygon points="759.17 361.92 846.85 378.67 846.59 342.34 759.52 342.34 759.17 361.92" fill="#a85d23"/><polygon points="868.59 382.59 955.21 399.7 955.4 342.34 867.17 342.67 868.59 382.59" fill="#a85d23"/><polygon points="979.09 403.62 1066.06 419.66 1065.32 342.34 978.25 342.34 979.09 403.62" fill="#a85d23"/><polygon points="1088.87 423.58 1120.95 430 1176.36 429.41 1176.36 342.34 1089.29 342.34 1088.87 423.58" fill="#a85d23"/><path d="M623.59,440.7a14.72,14.72,0,0,1-6.1,12l-142.4,103L474,554.21,434.46,581,358.24,468.57l59-40L435.9,351a12.21,12.21,0,0,1,14.73-9l4.92,1.18a12.2,12.2,0,0,1,9,14.73l-12.32,51.29-.15.65,1.31-.95,98.47-71.25a14.75,14.75,0,0,1,17.3,23.9l-71,51.33c1.33.59,2.64,1.24,3.93,1.93l70.94-51.33a14.75,14.75,0,0,1,17.29,23.9L525,434.7q.71,1,1.38,1.95c1,1.53,2,3.08,2.89,4.66l62.15-45a14.75,14.75,0,0,1,17.29,23.9L538,471.4c0,.76.06,1.53.07,2.29l62.1-44.93a14.74,14.74,0,0,1,23.39,11.94Z" fill="#d6802b"/><path d="M478.63,400.94s58.5,17.89,66.46,89.12" fill="none" stroke="#000" stroke-miterlimit="10" stroke-width="2.31"/><polygon points="115.12 1527.7 61.64 1630.12 100.47 1645.02 134.2 1604.61 131.72 1665.13 318.28 1645.42 204.51 1611.99 204.81 1542.13 115.12 1527.7" fill="#d6802b"/><polygon points="264.11 1651.14 178.75 1660.29 129.12 1593.09 129.44 1592.93 128.79 1592.65 129.12 1593.09 86.54 1582.42 96.75 1562.22 206.08 1567.25 204.5 1611.99 174.19 1604.39 264.11 1651.14" fill="#a85d23"/><polygon points="148.89 1591.07 147.22 1590.65 146.89 1590.21 148.89 1591.07" fill="#a85d23"/><path d="M453.42,408.92l-1.31.95.15-.65Z" fill="#d6802b"/><polygon points="482.02 565.59 176.67 759.75 112.11 670.63 94.78 646.71 155.73 562.23 193.98 564.41 386.58 437.92 449.38 521.92 452.15 525.63 482.02 565.59" fill="#c84348"/><polygon points="391.92 444.85 495.17 541.09 474.14 557.16 391.92 444.85" fill="#a85d23"/><polygon points="482.02 565.59 176.67 759.75 70.18 667.03 112.11 670.63 233.43 681.06 351.89 595.05 303.56 571.85 326.6 530.03 406.84 555.15 448.59 521.72 482.02 565.59" fill="#962b35"/><path d="M415.9,472s48.56-14.36,47.67-56.72" fill="none" stroke="#000" stroke-miterlimit="10" stroke-width="2.31"/><polygon points="299.13 338.3 149.11 332.39 40.91 715.71 338.12 761.2 299.13 338.3" fill="#c84348"/><polygon points="43.27 711.88 75.86 1562.4 241.17 1564.77 236.04 749.1 43.27 711.88" fill="#030303"/><polygon points="202.88 1473.38 106.82 1537.6 133.74 1569.29 182.73 1550.02 151.53 1601.93 324.68 1674.11 240.88 1590.21 274.65 1529.06 202.88 1473.38" fill="#d6802b"/><polygon points="169.62 1494.99 263.72 1551.71 240.88 1590.21 149.66 1508.77 169.62 1494.99" fill="#a85d23"/><path d="M58.58,719.6l260.07,418.1-204.11,321,153.09,103.7S531,1188.72,535.93,1197,338.12,761.2,338.12,761.2Z" fill="#030303"/><polyline points="160.71 1489.92 114.61 1458.55 245.19 1252.65" fill="none" stroke="#fff" stroke-miterlimit="10" stroke-width="2.31"/><line x1="98.08" y1="788.73" x2="318.65" y2="1137.7" fill="none" stroke="#fff" stroke-miterlimit="10" stroke-width="2.31"/><polygon points="148.89 1591.07 147.22 1590.65 146.89 1590.21 148.89 1591.07" fill="#a85d23"/><path d="M279.63,265.28A43.49,43.49,0,0,1,235,305c-.82,0-1.64-.07-2.47-.14a43.49,43.49,0,0,1-38-31,.14.14,0,0,1,0-.06c-.11-.37-.21-.74-.31-1.11,0-.05,0-.1-.05-.15-.32-1.25-.6-2.52-.82-3.8a43.77,43.77,0,0,1-.54-9.26c0-.57.06-1.14.11-1.71a42.7,42.7,0,0,1,2-9.81c.23-.71.48-1.4.74-2.08.09-.24.18-.48.29-.72s.17-.44.26-.65c.43-1,.9-2,1.41-3h0c.57-1.1,1.19-2.17,1.85-3.21a43.49,43.49,0,0,1,80.1,26.95Z" fill="#d6802b"/><path d="M240.89,402.44l-.41-.4.3-1Z" fill="#d6802b"/><polygon points="329.46 441.06 329.45 441.06 329.44 440.78 329.46 441.06" fill="#d6802b"/><polygon points="329.46 441.06 329.45 441.06 329.44 440.78 329.46 441.06" fill="#d6802b"/><polygon points="329.46 441.06 329.45 441.06 329.44 440.78 329.46 441.06" fill="#d6802b"/><path d="M197.43,477.76l41.7,58.81,1.07-96.23S223.09,502.36,197.43,477.76Z" fill="#962b35"/><path d="M245.58,283.64,234.82,305c-.82,0-1.64-.07-2.47-.14a43.22,43.22,0,0,1-18.7-6.07C228.41,297.23,245,284.07,245.58,283.64Z" fill="#a85d23"/><path d="M353.93,415.75c0-.8-.09-1.6-.16-2.39l-2-67.52a10.26,10.26,0,0,0-10.57-9.95l-4.61.14a10.27,10.27,0,0,0-10,10.57l.67,22.32,0,.6c-.71-.46-1.43-.9-2.16-1.31h0c-.38-.24-.77-.45-1.15-.67L322,341.84a10.54,10.54,0,0,0-11.31-9.73l-4,.3a10.56,10.56,0,0,0-9.74,11.31l.94,12.58.27,3.54h0l0,.58H298c-.62,0-1.25,0-1.87,0-.87,0-1.73,0-2.6.06-.68,0-1.36.07-2,.13l-.31-4.14-1.48-19.79a10.72,10.72,0,0,0-11.49-9.89l-3.7.28a10.72,10.72,0,0,0-9.89,11.49l2.09,27.91.14,1.85c-1,.59-2,1.21-3,1.86l-.2.13-.05-.63-.13-1.74-5.46-72.81a11.83,11.83,0,0,0-12.67-10.91l-1.51.12A11.82,11.82,0,0,0,233,297l7.8,104.07.11,1.39-.41-.4-31.74-31.86a10.41,10.41,0,0,0-14.73,0L191,373.2a10.42,10.42,0,0,0,0,14.73l48,48.14,2.69,60.75,115.7-5.11Zm-24.48,25.31v-.28l0,.28Z" fill="#d6802b"/><path d="M239.84,437.48l-1.19-.35-47.72-49.2s-6.21-6.53-1.46-12.94l3.09-3.8,48,31.19,0-.78L353.9,437.48Z" fill="#a85d23"/><path d="M263.7,370.27c1-.65,2.15-1.39,3.15-2l-.14-1.85.73,2.23,1.11,11.07Z" fill="#a85d23"/><path d="M296.12,360.39c.62,0,1.56,0,2.18,0l-4.06,13.91-3-11.26-.1-6.64.31,4.14c.67-.06,1.35-.1,2-.13C294.39,360.41,295.25,360.39,296.12,360.39Z" fill="#a85d23"/><path d="M328,371.9l-3.56,8.91L324,367.53l1.14.67h0c.73.41,1.45.85,2.16,1.31l0-.6Z" fill="#a85d23"/><polygon points="611.73 1070.55 830.94 1185.55 707.86 1360.74 626.1 1303.24 702.47 1196.33 597.35 1175.66 611.73 1070.55" fill="#395da3"/><polygon points="1155.24 1263.33 974.52 1145.37 1007.15 1285.92 1155.24 1263.33" fill="#d6802b"/><circle cx="830.94" cy="1034.73" r="47.24" fill="#c84348"/><polygon points="1105.07 1141.82 955.72 1015.75 1103.81 999.27 1105.07 1141.82" fill="#c84348"/><polygon points="954.23 1289.83 660.25 1513.59 694.08 1612.38 1001.64 1405.03 954.23 1289.83" fill="#395da3"/><circle cx="556.02" cy="1590.21" r="40.91" fill="#c84348"/><rect x="223.09" y="437.13" width="141.15" height="244.87" fill="#c84348"/><path d="M282.35,217.93a28.26,28.26,0,0,1-47.93,17.76c-.24.41-.48.82-.74,1.22A23.19,23.19,0,0,1,191,222.42c.07-.78.17-1.55.31-2.3l.09-.41c.06-.29.13-.58.2-.87A32.6,32.6,0,0,1,194,157.32,32.14,32.14,0,0,1,206.36,156a32.61,32.61,0,0,1,29.69,35.29c-.08,1-.21,1.94-.38,2.89a28.25,28.25,0,0,1,46.68,23.75Z" fill="#395da3"/><path d="M195.81,156.83c-1.25,4.78-10.24,41.16,2.81,50.37a12.81,12.81,0,0,0,6.44,2.26,32.29,32.29,0,0,0,.07,11.6c1.7,8.52,8,18.23,28.55,15.85A23.19,23.19,0,0,1,191,222.42c.07-.78.17-1.55.31-2.3l.29-.33-.2-.08c.06-.29.13-.58.2-.87A32.6,32.6,0,0,1,194,157.32Z" fill="#2b4271"/><polygon points="330.24 681.22 239.35 674.8 109.96 478.05 40.52 716.59 339.4 761.49 330.24 681.22" fill="#962b35"/></svg>