<svg id="Capa_1" data-name="Capa 1" xmlns="http://www.w3.org/2000/svg" viewBox="0 0 1642.24 2136.97"><title>Mesa de trabajo 31</title><rect x="615.64" y="1530.33" width="922.23" height="38.46" rx="12.26" transform="translate(2342.8 150.39) rotate(76.93)" fill="#d6802b"/><rect x="350.45" y="1515.36" width="922.23" height="38.46" rx="12.26" transform="translate(2489.89 1090.94) rotate(103.07)" fill="#d6802b"/><rect x="18.14" y="956.1" width="1847.76" height="40.63" rx="17.25" transform="translate(1918.44 34.4) rotate(90)" fill="#d6802b"/><rect x="315.21" y="195.34" width="1260.46" height="998.02" rx="70.59" fill="#2b4271"/><rect x="733.94" y="1183.86" width="418.74" height="40.63" rx="8.21" fill="#d6802b"/><polygon points="182.89 1920.8 129.41 2023.22 168.23 2038.12 201.97 1997.71 199.49 2058.23 386.05 2038.52 272.27 2005.09 272.58 1935.23 182.89 1920.8" fill="#d6802b"/><polygon points="164.61 1955.85 273.85 1960.35 272.27 2005.09 153.92 1975.63 164.61 1955.85" fill="#a85d23"/><path d="M661.05,986.59l-1.64.12.47-.47Z" fill="#d6802b"/><path d="M784.51,1006.51l-87.29,6.84q1.23,1.8,2.34,3.69l87.29-6.84a14.75,14.75,0,0,1,3.5,29.27c-.39.06-.79.11-1.2.14l-80.44,6.3c.07.78.12,1.59.16,2.38.08,1.84.1,3.67,0,5.48l76.48-6a14.75,14.75,0,0,1,3.5,29.26c-.4.07-.79.11-1.2.15l-87,6.81c-.36.68-.74,1.33-1.13,2l76.41-6a14.75,14.75,0,0,1,3.5,29.27c-.39.06-.79.1-1.2.14L603,1123.14l-.14-1.82-47.74,2.27-6.43-135.7L620,984.51l56.29-56.46a12.23,12.23,0,0,1,17.28,0l3.58,3.58a12.21,12.21,0,0,1,0,17.27l-37.25,37.36-.47.47,1.64-.12,121.16-9.49a14.75,14.75,0,0,1,3.5,29.27C785.31,1006.43,784.91,1006.47,784.51,1006.51Z" fill="#d6802b"/><path d="M686.71,992.91s40.6,45.75,10.27,110.7" fill="none" stroke="#000" stroke-miterlimit="10" stroke-width="2.31"/><path d="M596.12,1020.91s48.92,13,70.24-23.57" fill="none" stroke="#000" stroke-miterlimit="10" stroke-width="2.31"/><polygon points="319.75 865.77 358.57 984.08 588.87 976.5 603.79 1135.2 242 1141.77 158.17 913.02 319.75 865.77" fill="#c84348"/><polygon points="393.26 983.65 602.31 1085.12 603.79 1135.2 432.47 1136.98 393.26 983.65" fill="#962b35"/><rect x="507.29" y="1022.26" width="172.34" height="60.21" transform="translate(-414.23 1718.86) rotate(-94.06)" fill="#395da3"/><path d="M629.59,1136.19s-66-94.44-70.43-141.92L569.44,1142Z" fill="#2b4271"/><circle cx="278.77" cy="663.33" r="47.26" fill="#d6802b"/><circle cx="225.04" cy="661.77" r="16.03" fill="#d6802b"/><polygon points="348.81 733.84 198.78 727.93 90.58 1111.24 387.79 1156.74 348.81 733.84" fill="#c84348"/><polygon points="92.94 1107.41 125.53 1957.94 290.84 1960.3 285.72 1144.63 92.94 1107.41" fill="#030303"/><polygon points="247.91 1857.19 151.86 1921.41 178.78 1953.11 227.77 1933.83 196.56 1985.75 369.72 2057.93 285.92 1974.03 319.69 1912.88 247.91 1857.19" fill="#d6802b"/><polygon points="214.69 1879.04 308.76 1935.53 285.92 1974.03 196.51 1891.69 214.69 1879.04" fill="#a85d23"/><path d="M108.25,1115.13,376.84,1547l-222.5,284.16,163,126.74s263.37-373.65,268.31-365.42-197.82-435.75-197.82-435.75Z" fill="#030303"/><polyline points="215.4 1879.81 154.34 1831.17 287.67 1659.98" fill="none" stroke="#fff" stroke-miterlimit="10" stroke-width="2.31"/><line x1="147.75" y1="1184.27" x2="368.33" y2="1533.23" fill="none" stroke="#fff" stroke-miterlimit="10" stroke-width="2.31"/><polygon points="196.56 1985.75 330.47 2043.51 246.52 2053.39 196.56 1985.75" fill="#a85d23"/><path d="M219.77,646.21s2.61,4.73,11.69,5.35c0,0-2.64,6,2.3,16.67,0,0-4.73,5.14-4.73,9.26,0,0-6.17,1-9.26-.83C219.77,676.66,231.09,662.47,219.77,646.21Z" fill="#a85d23"/><path d="M412.4,873.4l-115.7,5.1-2.64-59.81-49.18-49.37-.14-.15a10.23,10.23,0,0,1-2.34-3.83l0,0a10.46,10.46,0,0,1,1.25-9.18,10,10,0,0,1,1.1-1.35l.17-.18,1.86-1.85,1.2-1.2a10.42,10.42,0,0,1,14.73,0l32.15,32.26L295,786c.13-.52.26-1,.41-1.54l-.57-.58-7.91-105.46a11.82,11.82,0,0,1,10.9-12.67l1.51-.11A11.82,11.82,0,0,1,312,676.49l5.72,76.25,0,0c1.12-.8,2.27-1.55,3.45-2.26h0l-2.29-30.53a10.71,10.71,0,0,1,9.88-11.49l3.7-.28A10.72,10.72,0,0,1,344,718l1.82,24.3h.06c.92-.09,1.84-.15,2.77-.19s1.73-.06,2.6-.06h.91l-1.27-17a10.57,10.57,0,0,1,9.74-11.32l4-.3A10.54,10.54,0,0,1,376,723.24l1.9,25.35c1.14.58,2.26,1.22,3.35,1.88L380.54,728a10.27,10.27,0,0,1,9.95-10.58l4.61-.14a10.27,10.27,0,0,1,10.57,10l1.79,59a58,58,0,0,1,1.59,11.2Z" fill="#d6802b"/><path d="M381.28,750.52l0,.16v-.2Z" fill="#d6802b"/><path d="M378.63,758.68l-1,2.94.17-13,0,0Z" fill="#d6802b"/><path d="M294.84,783.84l.57.58c-.15.51-.28,1-.41,1.54Z" fill="#d6802b"/><rect x="277.04" y="818.52" width="141.15" height="277.6" fill="#c84348"/><path d="M251.38,859.16,293.08,918l1.07-96.24S277,883.75,251.38,859.16Z" fill="#962b35"/><path d="M295.41,784.42c-.15.51-.28,1-.41,1.54l-.16-2.12Z" fill="#d6802b"/><polygon points="294.25 818.88 293.79 818.88 293.8 818.43 294.25 818.88" fill="#a85d23"/><path d="M410,818.47l-115.77.42-.45-.45-48.92-49.11-.14-.15a14.3,14.3,0,0,1-2.34-3.83l0,0a8.82,8.82,0,0,1,1-8.92l.21-.26,1.1-1.35,1.78-2.19.25.16,48,31.21v0Z" fill="#a85d23"/><polygon points="294.65 818.88 294.65 819.28 294.25 818.88 294.65 818.88" fill="#a85d23"/><path d="M322.13,761.23l-4.37-8.51c1.12-.8,2.27-1.55,3.45-2.26Z" fill="#a85d23"/><path d="M352.13,742.1l-1.54,12.15-4.71-11.91c.92-.09,1.84-.15,2.77-.19s1.73-.06,2.6-.06Z" fill="#a85d23"/><path d="M381.76,749.67l-.05.16-2.6,8-1,2.94.17-13,0,0c1.14.58,2.26,1.22,3.35,1.88Z" fill="#a85d23"/><circle cx="1217.54" cy="1349.96" r="71.74" fill="#c84348"/><path d="M1387.62,1445.67l-156.53,102.18,10.87-89.14,32.61,19.57s-4.34-69.57,2.18-67.4,50,43.48,50,43.48l19.57-45.65S1385.45,1447.84,1387.62,1445.67Z" fill="#d6802b"/><polygon points="1409.76 1224.2 1599.63 1323.81 1493.02 1475.55 1422.21 1425.75 1488.35 1333.14 1397.31 1315.24 1409.76 1224.2" fill="#395da3"/><polygon points="733.94 1561.59 621.46 1737.79 581.24 1696.85 687.36 1552.38 733.94 1561.59" fill="#d6802b"/><polygon points="613.01 1297.96 708.11 1453.95 529.31 1340.54 613.01 1297.96" fill="#395da3"/><polygon points="96.19 614.82 250.99 492.01 104.72 484.77 96.19 614.82" fill="#d6802b"/><circle cx="170.88" cy="390.62" r="40.91" fill="#c84348"/><path d="M356.8,604.44a40.74,40.74,0,0,1-70.34,28,26,26,0,0,1-9.83,7.15,25.93,25.93,0,0,1-15.87,42.33,16.42,16.42,0,0,1-.61,3.06A16.15,16.15,0,1,1,230,673.66v0a16.47,16.47,0,0,1,3.88-5.3,25.7,25.7,0,0,1-3-12,26.25,26.25,0,0,1,.43-4.73,16.16,16.16,0,0,1-6.77-30.76,16.15,16.15,0,0,1,15.76-12.62c.53,0,1,0,1.57.07a25.93,25.93,0,0,1,35.4-16.31,40.75,40.75,0,0,1,79.53,12.5Z" fill="#395da3"/><path d="M160.13,867.82c-1.09,6.72,59.4,242.35,231,289.26L88.91,1111.84Z" fill="#962b35"/><path d="M336.43,639.62s-22.63,17.08-50.2-7c0,0-2.66-4.43-1.08-11.79-6.9-6-26.39-20.81-41-9.87,0,0-19.13,8.15-11.48,19.12,0,0-3.06,20.14,11,21.42,0,0-4,26.32,16.55,33.46A16.15,16.15,0,1,1,230,673.66v0a22,22,0,0,1,2.22-2.68l-.28-.52a15.43,15.43,0,0,1,1.94-2.1,25.7,25.7,0,0,1-3-12,26.25,26.25,0,0,1,.43-4.73,16.16,16.16,0,0,1-6.77-30.76,16.15,16.15,0,0,1,15.76-12.62c.53,0,1,0,1.57.07a25.92,25.92,0,0,1,36.88-15.59c-.49,5.1-.3,15.38,6.68,27l.18-.64S306.6,648.68,336.43,639.62Z" fill="#2b4271"/><rect x="489.7" y="348.82" width="600.95" height="80.11" fill="#d6802b"/><rect x="489.7" y="346.59" width="399.92" height="82.34" fill="#c84348"/><rect x="485.43" y="502.09" width="600.95" height="80.11" fill="#d6802b"/><rect x="485.43" y="499.86" width="536.08" height="82.34" fill="#c84348"/><rect x="733.94" y="176.57" width="418.74" height="40.63" rx="8.21" fill="#d6802b"/><rect x="485.43" y="653.93" width="699.33" height="80.11" fill="#d6802b"/><rect x="485.43" y="651.7" width="457.92" height="82.34" fill="#c84348"/><rect x="485.43" y="805.77" width="900.36" height="80.11" fill="#d6802b"/><rect x="485.43" y="803.54" width="803.16" height="82.34" fill="#c84348"/></svg>