<svg id="Capa_1" data-name="Capa 1" xmlns="http://www.w3.org/2000/svg" viewBox="0 0 1290.08 1935.94"><title>Mesa de trabajo 36</title><path d="M940.59,129.12V251.48a54.3,54.3,0,0,1-54.3,54.3H746.81A54.21,54.21,0,0,1,729.49,303L684,337.86l21-51.75a54.09,54.09,0,0,1-12.47-34.63V129.12a54.31,54.31,0,0,1,54.3-54.31H886.29A54.31,54.31,0,0,1,940.59,129.12Z" fill="#395da3"/><path d="M334.34,388.09a14.64,14.64,0,0,1-6.86,11.21s-.05.05-.08.05a7.17,7.17,0,0,1-.93.53l-.06,0a13.21,13.21,0,0,1-2.09.88l-.15.06h0l-.33.1a14.06,14.06,0,0,1-2.16.47h0a14.42,14.42,0,0,1-3.29.08,14.75,14.75,0,0,1-.55-29.34,10.69,10.69,0,0,1,1.38-.11,14.07,14.07,0,0,1,1.71.05,14.52,14.52,0,0,1,7.24,2.65c.33.22.64.47,1,.72a15.53,15.53,0,0,1,1.93,2A14.66,14.66,0,0,1,334.34,388.09Z" fill="#d6802b"/><path d="M332.71,365.1c-.66,1-1.28,2.1-1.85,3.2v0c-.51,1-1,2-1.41,3-.09.21-.18.42-.26.65s-.2.48-.29.72c-.26.68-.51,1.36-.74,2.08a14.52,14.52,0,0,0-7.24-2.65,14.07,14.07,0,0,0-1.71-.05,97.17,97.17,0,0,1,4.5,16,45.29,45.29,0,0,1,.7,12c0,.25,0,.5-.08.73a13.21,13.21,0,0,0,2.09-.88c0-.8.12-1.58.19-2.35l-.13,2.31a7.17,7.17,0,0,0,.93-.53s0,.1.05.14l0-.19,3.3-21.2c.09-.22.17-.44.25-.65.6-1.5,1.18-2.75,1.71-3.79,1.88-3.65,3.26-4.77,3.26-4.77l1.16-.9A28.83,28.83,0,0,1,332.71,365.1Z" fill="#a85d23"/><path d="M756.77,567.47a14.75,14.75,0,0,1-6.1,12l-142.4,103L607.2,681l-39.56,26.8L491.42,595.34l59-40,18.62-77.52a12.21,12.21,0,0,1,14.73-9l4.92,1.19a12.2,12.2,0,0,1,9,14.73L585.44,536l-.15.65,1.31-.95,98.47-71.25a14.75,14.75,0,0,1,17.3,23.9l-71,51.33c1.33.59,2.64,1.24,3.93,1.93l70.94-51.33a14.75,14.75,0,0,1,17.29,23.9l-65.37,47.3q.7,1,1.38,1.95c1,1.53,2,3.07,2.89,4.65l62.15-45A14.75,14.75,0,0,1,741.92,547l-70.71,51.16c0,.76.06,1.53.07,2.28l62.1-44.92a14.74,14.74,0,0,1,23.39,11.94Z" fill="#d6802b"/><path d="M611.8,527.7s58.51,17.89,66.47,89.13" fill="none" stroke="#000" stroke-miterlimit="10" stroke-width="2.31"/><polygon points="248.3 1654.46 194.82 1756.88 233.64 1771.78 267.38 1731.37 264.9 1791.9 451.46 1772.18 337.68 1738.75 337.99 1668.9 248.3 1654.46" fill="#d6802b"/><polygon points="397.29 1777.9 311.93 1787.05 262.3 1719.85 262.62 1719.69 261.97 1719.41 262.3 1719.85 219.72 1709.18 229.93 1688.98 339.26 1694.01 337.68 1738.75 307.37 1731.15 397.29 1777.9" fill="#a85d23"/><polygon points="282.06 1717.84 280.39 1717.41 280.06 1716.97 282.06 1717.84" fill="#a85d23"/><path d="M586.6,535.69l-1.31.95.15-.65C585.82,535.89,586.21,535.78,586.6,535.69Z" fill="#d6802b"/><polygon points="615.2 692.36 309.85 886.51 245.28 797.39 227.96 773.48 288.9 689 327.15 691.17 519.75 564.68 582.55 648.68 585.33 652.39 615.2 692.36" fill="#c84348"/><polygon points="525.1 571.61 628.35 667.85 607.32 683.93 525.1 571.61" fill="#a85d23"/><polygon points="615.2 692.36 309.85 886.51 203.35 793.79 245.28 797.39 366.61 807.83 485.06 721.82 436.74 698.62 459.77 656.79 540.01 681.91 581.77 648.49 615.2 692.36" fill="#962b35"/><path d="M549.08,598.81s48.55-14.37,47.67-56.73" fill="none" stroke="#000" stroke-miterlimit="10" stroke-width="2.31"/><polygon points="432.31 465.06 282.29 459.16 174.08 842.47 471.3 887.96 432.31 465.06" fill="#c84348"/><polygon points="176.44 838.64 209.04 1689.16 374.35 1691.53 369.22 875.86 176.44 838.64" fill="#030303"/><polygon points="336.05 1600.14 240 1664.36 266.92 1696.06 315.91 1676.78 284.7 1728.7 457.86 1800.88 374.06 1716.97 407.83 1655.83 336.05 1600.14" fill="#d6802b"/><polygon points="302.8 1621.75 396.9 1678.47 374.06 1716.97 282.84 1635.53 302.8 1621.75" fill="#a85d23"/><path d="M191.75,846.36l260.08,418.1-204.11,321,153.08,103.7s263.37-373.65,268.31-365.42S471.29,888,471.29,888Z" fill="#030303"/><polyline points="293.89 1616.68 247.79 1585.32 378.37 1379.42" fill="none" stroke="#fff" stroke-miterlimit="10" stroke-width="2.31"/><line x1="231.26" y1="915.49" x2="451.83" y2="1264.46" fill="none" stroke="#fff" stroke-miterlimit="10" stroke-width="2.31"/><polygon points="282.06 1717.84 280.39 1717.41 280.06 1716.97 282.06 1717.84" fill="#a85d23"/><path d="M412.81,392.05a43.48,43.48,0,0,1-44.59,39.73c-.82,0-1.64-.06-2.47-.13a43.53,43.53,0,0,1-38-31,.14.14,0,0,1,0-.06c-.11-.37-.21-.74-.31-1.12,0,0,0-.09-.05-.14-.32-1.25-.6-2.53-.82-3.8a43.86,43.86,0,0,1-.54-9.27c0-.56.06-1.13.11-1.71a42.73,42.73,0,0,1,2-9.8c.23-.72.48-1.4.74-2.08.09-.24.18-.49.29-.72s.17-.44.26-.65c.43-1,.9-2,1.41-3v0c.57-1.1,1.19-2.16,1.85-3.2a43.49,43.49,0,0,1,80.1,26.95Z" fill="#d6802b"/><path d="M374.07,529.2l-.41-.4.3-1Z" fill="#d6802b"/><polygon points="462.63 567.83 462.63 567.83 462.62 567.54 462.63 567.83" fill="#d6802b"/><polygon points="462.63 567.83 462.63 567.83 462.62 567.54 462.63 567.83" fill="#d6802b"/><polygon points="462.63 567.83 462.63 567.83 462.62 567.54 462.63 567.83" fill="#d6802b"/><path d="M330.6,604.52l41.71,58.82,1.07-96.24S356.27,629.12,330.6,604.52Z" fill="#962b35"/><path d="M378.76,410.41,368,431.8c-.82,0-1.64-.06-2.47-.13a43.35,43.35,0,0,1-18.7-6.07C361.59,424,378.22,410.84,378.76,410.41Z" fill="#a85d23"/><path d="M487.11,542.52c0-.8-.09-1.6-.16-2.39l-2.05-67.52a10.26,10.26,0,0,0-10.57-9.95l-4.61.14a10.26,10.26,0,0,0-10,10.57l.67,22.32,0,.59c-.71-.46-1.43-.89-2.16-1.3h0c-.38-.24-.77-.45-1.15-.67l-1.93-25.69a10.54,10.54,0,0,0-11.31-9.73l-4,.3a10.56,10.56,0,0,0-9.74,11.31l.94,12.58.27,3.54h0l0,.58h-.2c-.62,0-1.25,0-1.87,0-.87,0-1.73,0-2.6.06-.68,0-1.36.06-2,.13l-.31-4.15-1.48-19.78a10.72,10.72,0,0,0-11.49-9.89l-3.7.27a10.73,10.73,0,0,0-9.89,11.5l2.09,27.9.14,1.85c-1,.6-2,1.22-2.95,1.87a2.26,2.26,0,0,0-.2.13l-.05-.63-.13-1.74-5.46-72.81A11.85,11.85,0,0,0,378.57,411l-1.51.12a11.84,11.84,0,0,0-10.9,12.67L374,527.82l.11,1.38-.41-.4L341.92,497a10.41,10.41,0,0,0-14.73,0L324.13,500a10.42,10.42,0,0,0,0,14.73l48,48.14,2.69,60.75,115.7-5.11Zm-24.48,25.3v-.27l0,.27Z" fill="#d6802b"/><path d="M373,564.24l-1.19-.35L324.11,514.7s-6.21-6.53-1.46-12.94l3.09-3.81,48,31.2,0-.78,113.34,35.87Z" fill="#a85d23"/><path d="M396.88,497c1-.65,2.15-1.39,3.15-2l-.14-1.85.73,2.23,1.11,11.08Z" fill="#a85d23"/><path d="M429.3,487.16c.62,0,1.56,0,2.18,0l-4.06,13.92-3-11.27-.1-6.64.31,4.15c.67-.07,1.35-.11,2-.13C427.57,487.18,428.43,487.16,429.3,487.16Z" fill="#a85d23"/><path d="M461.18,498.66l-3.56,8.91-.48-13.27,1.14.67h0c.73.41,1.45.84,2.16,1.3l0-.59Z" fill="#a85d23"/><polygon points="595.2 782.42 814.42 897.42 691.33 1072.61 609.58 1015.11 685.94 908.2 580.83 887.53 595.2 782.42" fill="#395da3"/><polygon points="656.93 1441.36 514.92 1603.87 658.65 1591.15 656.93 1441.36" fill="#d6802b"/><circle cx="733.15" cy="1176.46" r="47.24" fill="#c84348"/><polygon points="841.75 1322.75 672.35 1420.23 707.29 1275.39 841.75 1322.75" fill="#c84348"/><polygon points="183.34 317.27 74.33 537.59 123.72 586.46 245.67 371.9 183.34 317.27" fill="#395da3"/><circle cx="545.91" cy="1708.42" r="40.91" fill="#c84348"/><rect x="356.27" y="563.89" width="141.15" height="244.87" fill="#c84348"/><path d="M415.53,344.7a28.25,28.25,0,0,1-47.93,17.75c-.24.42-.48.83-.74,1.23a23.19,23.19,0,0,1-42.64-14.49c.07-.78.17-1.55.31-2.3,0-.15.06-.27.09-.41.06-.29.13-.58.2-.87a32.6,32.6,0,0,1,2.37-61.52,32.14,32.14,0,0,1,12.35-1.32,32.6,32.6,0,0,1,29.69,35.28c-.08,1-.21,1.94-.38,2.9a28.25,28.25,0,0,1,46.68,23.75Z" fill="#395da3"/><path d="M329,283.6c-1.25,4.78-10.24,41.16,2.81,50.37a12.81,12.81,0,0,0,6.44,2.26,32.29,32.29,0,0,0,.07,11.6c1.7,8.52,8,18.23,28.55,15.85a23.19,23.19,0,0,1-42.64-14.49c.07-.78.17-1.55.31-2.3l.29-.33-.2-.08c.06-.29.13-.58.2-.87a32.6,32.6,0,0,1,2.37-61.52Z" fill="#2b4271"/><polygon points="463.42 807.98 372.52 801.56 243.14 604.81 173.7 843.36 472.58 888.25 463.42 807.98" fill="#962b35"/><rect x="599.76" y="365.11" width="188.1" height="327.77" rx="23.03" transform="translate(96.55 -106.99) rotate(9.47)" fill="#395da3"/><rect x="599.92" y="363.09" width="163.49" height="327.77" rx="23.11" transform="translate(96.05 -105.02) rotate(9.47)" fill="#2b4271"/><rect x="611.91" y="387.12" width="139.51" height="279.71" rx="29.81" transform="translate(96.05 -105.02) rotate(9.47)" fill="#395da3"/><polygon points="602.69 237.51 570.13 237.51 584.94 312.62 541.32 237.51 202.54 237.51 202.54 125.52 602.69 125.52 602.69 237.51" fill="#d6802b"/><rect x="735.29" y="138.97" width="164.67" height="111.21" fill="#d6802b"/><polyline points="735.29 138.97 817.62 194.57 899.96 138.97" fill="none" stroke="#fff" stroke-miterlimit="10" stroke-width="2.65"/><polygon points="1203.64 684.32 1203.64 812.64 833.66 812.64 833.66 684.32 856.89 684.32 820.83 630.85 904.37 684.32 1203.64 684.32" fill="#d6802b"/><path d="M1114.53,398.46V546a34.22,34.22,0,0,1-34.22,34.22H902.81A34.22,34.22,0,0,1,868.59,546V437.41l-41.35-29.68,41.35-3.83v-5.44a34.22,34.22,0,0,1,34.22-34.22h177.5A34.22,34.22,0,0,1,1114.53,398.46Z" fill="#395da3"/><circle cx="949.86" cy="439.09" r="27.09" fill="#d6802b"/><path d="M949.86,469h0a47.76,47.76,0,0,1,47.76,47.76v30.65a0,0,0,0,1,0,0H902.1a0,0,0,0,1,0,0V516.79A47.76,47.76,0,0,1,949.86,469Z" fill="#d6802b"/><circle cx="1028.28" cy="439.09" r="27.09" fill="#c84348"/><path d="M1028.28,469h0A47.76,47.76,0,0,1,1076,516.79v30.65a0,0,0,0,1,0,0H980.51a0,0,0,0,1,0,0V516.79A47.76,47.76,0,0,1,1028.28,469Z" fill="#c84348"/><polyline points="236.99 202.06 299.01 152.87 351.41 206.34 386.69 153.94 436.95 208.47 478.65 160.36 523.56 213.82 572.75 162.5" fill="none" stroke="#c84348" stroke-miterlimit="10" stroke-width="7"/><circle cx="299.01" cy="155.01" r="17.11" fill="#c84348"/><circle cx="348.2" cy="203.13" r="14.97" fill="#c84348"/><circle cx="386.69" cy="152.87" r="13.9" fill="#c84348"/><circle cx="434.81" cy="207.41" r="10.69" fill="#c84348"/><circle cx="476.51" cy="156.08" r="16.04" fill="#c84348"/><circle cx="523.56" cy="206.34" r="14.97" fill="#c84348"/></svg>