<svg width="1345" height="1666" viewBox="0 0 1345 1666" fill="none" xmlns="http://www.w3.org/2000/svg">
<g clip-path="url(#clip0_2950_226284)">
<path d="M368.5 1471.48L280.82 1546.73L311.34 1574.98L357.67 1549.98L332.9 1605.26L513.44 1656.21L420.21 1582.93L446.42 1518.18L368.5 1471.48Z" fill="#D6802B"/>
<path d="M338.95 1497.12L438.28 1541.98L420.21 1582.93L322.06 1511.87L338.95 1497.12Z" fill="#A85D23"/>
<path d="M507.84 735.42L508.84 734.09V734.76C508.54 735 508.2 735.2 507.84 735.42Z" fill="#D6802B"/>
<path d="M411.48 815.1L463.89 745C462.45 744.83 461 744.6 459.57 744.33L407.16 814.47C404.882 817.524 401.51 819.578 397.751 820.201C393.993 820.824 390.138 819.969 386.996 817.814C383.854 815.66 381.667 812.373 380.894 808.642C380.122 804.911 380.822 801.026 382.85 797.8C383.06 797.46 383.29 797.14 383.53 796.8L431.83 732.17C431.19 731.7 430.56 731.17 429.94 730.72C428.5 729.567 427.12 728.373 425.8 727.14L379.87 788.58C377.586 791.615 374.218 793.651 370.47 794.265C366.721 794.879 362.881 794.024 359.747 791.876C356.614 789.729 354.43 786.456 353.65 782.738C352.87 779.021 353.554 775.146 355.56 771.92C355.77 771.58 356 771.25 356.25 770.92L408.49 701C408.23 700.29 407.97 699.57 407.74 698.85L361.86 760.25C359.587 763.315 356.214 765.379 352.451 766.009C348.687 766.64 344.826 765.787 341.678 763.631C338.53 761.474 336.34 758.182 335.568 754.445C334.797 750.708 335.503 746.817 337.54 743.59C337.75 743.25 337.98 742.92 338.23 742.59L443.44 601.76L444.9 602.85L474.68 565.46L580.94 650.1L536.51 705.88L541.85 785.42C541.957 787.02 541.748 788.626 541.235 790.145C540.722 791.665 539.914 793.068 538.858 794.275C537.802 795.483 536.519 796.47 535.081 797.181C533.644 797.892 532.08 798.313 530.48 798.42L525.42 798.76C522.189 798.974 519.005 797.897 516.567 795.765C514.13 793.633 512.638 790.621 512.42 787.39L508.89 734.75V734.08L507.89 735.41L435.16 832.75C432.952 835.98 429.551 838.201 425.706 838.924C421.86 839.647 417.885 838.813 414.655 836.605C411.425 834.397 409.204 830.996 408.481 827.151C407.758 823.305 408.592 819.33 410.8 816.1C411 815.76 411.24 815.43 411.48 815.1Z" fill="#D6802B"/>
<path d="M486.19 750.53C486.19 750.53 425.01 750.89 396.19 685.27" stroke="black" stroke-width="2.31" stroke-miterlimit="10"/>
<path d="M524.87 664C524.87 664 482.8 692.19 496.27 732.36" stroke="black" stroke-width="2.31" stroke-miterlimit="10"/>
<path d="M823.73 558.47L709.17 509.65L563.03 687.79L433.88 594.37L667.48 318.02L894.74 405.83L823.73 558.47Z" fill="#962B35"/>
<path d="M593.156 664.775L454.239 559.369L410.929 616.448L549.846 721.854L593.156 664.775Z" fill="#395DA3"/>
<path d="M411 616.45C411 616.45 547.26 631.51 593.23 664.78L452.93 558.06L411 616.45Z" fill="#2B4271"/>
<path d="M924.35 386.73C950.451 386.73 971.61 365.571 971.61 339.47C971.61 313.369 950.451 292.21 924.35 292.21C898.249 292.21 877.09 313.369 877.09 339.47C877.09 365.571 898.249 386.73 924.35 386.73Z" fill="#D6802B"/>
<path d="M875.04 334.1C883.893 334.1 891.07 326.923 891.07 318.07C891.07 309.217 883.893 302.04 875.04 302.04C866.187 302.04 859.01 309.217 859.01 318.07C859.01 326.923 866.187 334.1 875.04 334.1Z" fill="#D6802B"/>
<path d="M963.2 430.94L826.1 369.76L583.32 685.51L842.41 838.09L963.2 430.94Z" fill="#C84348"/>
<path d="M586.94 682.83L301.46 1484.68L454.07 1548.24L752.12 788.96L586.94 682.83Z" fill="#030303"/>
<path d="M452.5 1436.56L339.46 1460.54L352.69 1499.96L405.33 1500.25L357.09 1536.87L491.07 1668.17L444.41 1559.16L498.47 1514.92L452.5 1436.56Z" fill="#D6802B"/>
<path d="M413.56 1444.29L479.91 1531.89L444.41 1559.16L390.53 1449.42L413.56 1444.29Z" fill="#A85D23"/>
<path d="M598.29 695.68L684.57 1180.45L375.88 1402.73L479.53 1555.85C479.53 1555.85 862.79 1306.66 864.32 1316.14C865.85 1325.62 842.41 838.09 842.41 838.09L598.29 695.68Z" fill="#030303"/>
<path d="M413.91 1445.49L375.27 1377.66L562.62 1268.2" stroke="white" stroke-width="2.31" stroke-miterlimit="10"/>
<path d="M609.3 774.54L684.57 1180.45" stroke="white" stroke-width="2.31" stroke-miterlimit="10"/>
<path d="M357.09 1536.87L459.98 1640.21L378.36 1618.22L357.09 1536.87Z" fill="#A85D23"/>
<path d="M996 260.81C987.992 257.608 979.175 257.029 970.817 259.157C962.459 261.284 954.992 266.009 949.49 272.65C947.769 270.862 945.791 269.342 943.62 268.14C943.62 268.14 943.62 268.14 943.55 268.09C942.586 267.536 941.583 267.051 940.55 266.64C935.356 264.559 929.628 264.214 924.221 265.656C918.814 267.098 914.019 270.249 910.55 274.64C910.19 274.46 909.83 274.29 909.45 274.13L909.12 274L908.98 273.94C905.583 272.619 901.839 272.486 898.357 273.563C894.874 274.639 891.859 276.862 889.8 279.87C886.154 280.103 882.695 281.565 879.987 284.017C877.279 286.468 875.481 289.765 874.887 293.369C874.293 296.974 874.938 300.673 876.717 303.864C878.495 307.055 881.302 309.549 884.68 310.94C883.828 312.279 883.105 313.695 882.52 315.17C880.956 319.059 880.369 323.272 880.81 327.44C878.574 328.268 876.549 329.58 874.881 331.283C873.212 332.986 871.941 335.036 871.158 337.288C870.375 339.54 870.1 341.937 870.353 344.308C870.606 346.679 871.38 348.964 872.62 351C871.066 355 870.531 359.324 871.062 363.583C871.593 367.842 873.174 371.902 875.663 375.398C878.152 378.894 881.47 381.717 885.32 383.613C889.17 385.509 893.431 386.419 897.72 386.26C898.754 390.166 900.688 393.776 903.367 396.801C906.047 399.826 909.397 402.182 913.15 403.68C914.074 404.052 915.019 404.369 915.98 404.63C915.367 409.967 916.427 415.363 919.013 420.072C921.599 424.78 925.584 428.57 930.416 430.916C935.249 433.262 940.691 434.049 945.991 433.168C951.29 432.288 956.186 429.783 960 426C962.536 423.503 964.524 420.506 965.84 417.2C966.827 414.73 967.43 412.123 967.63 409.47C973.22 405.997 977.28 400.528 978.988 394.173C980.695 387.817 979.922 381.05 976.826 375.243C973.729 369.436 968.54 365.024 962.311 362.901C956.082 360.778 949.278 361.103 943.28 363.81C940.755 360.571 937.498 357.975 933.777 356.237C930.055 354.499 925.975 353.667 921.87 353.81C921.279 351.602 920.402 349.48 919.26 347.5C924.507 344.552 928.565 339.871 930.74 334.259C932.914 328.647 933.07 322.454 931.18 316.74C935.289 316.692 939.328 315.664 942.96 313.74C945.445 320.014 949.449 325.573 954.613 329.916C959.777 334.26 965.939 337.253 972.546 338.627C979.153 340 985.997 339.711 992.465 337.785C998.932 335.859 1004.82 332.357 1009.6 327.593C1014.38 322.829 1017.9 316.953 1019.85 310.492C1021.79 304.03 1022.1 297.187 1020.75 290.576C1019.4 283.965 1016.43 277.793 1012.1 272.615C1007.77 267.437 1002.23 263.415 995.96 260.91L996 260.81ZM906.56 299.65C906.47 299.39 906.37 299.12 906.29 298.86C906.436 298.85 906.583 298.85 906.73 298.86C906.63 299.13 906.58 299.4 906.51 299.65H906.56Z" fill="#395DA3"/>
<path d="M906.52 299.65C906.43 299.39 906.33 299.12 906.25 298.86C906.396 298.845 906.544 298.845 906.69 298.86C906.64 299.13 906.58 299.4 906.52 299.65Z" fill="#395DA3"/>
<path d="M906.69 298.87C906.64 299.13 906.58 299.4 906.52 299.65C906.43 299.39 906.33 299.12 906.25 298.86C906.397 298.848 906.544 298.852 906.69 298.87Z" fill="#395DA3"/>
<path d="M906.52 299.65C906.43 299.39 906.33 299.12 906.25 298.86C906.396 298.845 906.544 298.845 906.69 298.86C906.64 299.13 906.58 299.4 906.52 299.65Z" fill="#395DA3"/>
<path d="M906.52 299.65C906.43 299.39 906.33 299.12 906.25 298.86C906.396 298.845 906.544 298.845 906.69 298.86C906.64 299.13 906.58 299.4 906.52 299.65Z" fill="#395DA3"/>
<path d="M875.92 301.67C875.92 301.67 876.58 307.03 884.79 310.98C884.79 310.98 880.12 315.54 880.79 327.31C880.79 327.31 874.48 330.31 872.95 334.15C872.95 334.15 866.84 332.81 864.66 329.95C864.61 330 880.39 321 875.92 301.67Z" fill="#A85D23"/>
<path d="M961.09 424.39C960.753 424.92 960.385 425.431 959.99 425.92C956.177 429.69 951.289 432.185 945.999 433.062C940.709 433.938 935.278 433.154 930.453 430.815C925.627 428.477 921.645 424.701 919.055 420.006C916.465 415.311 915.394 409.929 915.99 404.6C915.031 404.331 914.087 404.014 913.16 403.65C909.404 402.152 906.051 399.796 903.37 396.769C900.689 393.742 898.754 390.129 897.72 386.22C894.113 386.364 890.517 385.74 887.17 384.39C880.839 381.859 875.762 376.933 873.04 370.682C870.318 364.431 870.171 357.359 872.63 351C871.383 348.966 870.603 346.681 870.345 344.31C870.086 341.939 870.356 339.54 871.136 337.285C871.915 335.03 873.184 332.977 874.851 331.271C876.519 329.565 878.544 328.25 880.78 327.42C880.344 323.252 880.931 319.04 882.49 315.15C883.076 313.674 883.803 312.257 884.66 310.92C881.273 309.536 878.457 307.044 876.672 303.851C874.887 300.658 874.238 296.953 874.833 293.344C875.428 289.734 877.231 286.434 879.946 283.982C882.661 281.531 886.129 280.074 889.78 279.85C891.841 276.834 894.864 274.606 898.355 273.531C901.846 272.455 905.599 272.596 909 273.93L909.43 274.15C910.16 273.28 924.97 255.97 943.52 268.15L943.58 268.2C945.459 269.451 947.225 270.863 948.86 272.42C948.86 272.42 926.73 264.48 916.57 282.05C916.57 282.05 903.29 273.82 895.31 285.94C895.31 285.94 882.36 284.14 886.14 304.36C886.14 304.36 904.06 316.71 893.6 327.17C883.14 337.63 879.31 344.44 882.74 349.87C882.74 349.87 880.52 377.87 899.58 376.66C899.58 376.66 913.13 402.13 921.8 395.01C921.79 394.94 939.31 431.24 961.09 424.39Z" fill="#2B4271"/>
<path d="M947.14 300.9C947.14 300.9 955.62 336.2 986.69 338.9C986.69 338.9 959.33 346.35 942.69 313.76C942.67 313.73 941.71 307.81 947.14 300.9Z" fill="#2B4271"/>
<path d="M1139.17 331.43L1139.91 332.15L1140.52 331.51L1139.17 331.43Z" fill="#D6802B"/>
<path d="M849.25 404.57L948.26 462.24L1131.62 301.49L1200.88 407.97L964.43 641.97L766.97 535.82L849.25 404.57Z" fill="#C84348"/>
<path d="M1132.57 229.58L1128.34 302.81L1081.4 348.67L1168.76 438.09L1200.22 407.36L1201.43 408.52L1313.59 292C1316.09 289.402 1317.45 285.919 1317.38 282.316C1317.31 278.714 1315.81 275.287 1313.21 272.79C1310.61 270.293 1307.13 268.93 1303.53 269.001C1299.92 269.073 1296.5 270.572 1294 273.17L1245.13 324C1244.72 322 1244.22 319.93 1243.61 317.91L1298.05 261.36C1299.02 260.343 1299.84 259.183 1300.46 257.92C1301.91 255.009 1302.27 251.674 1301.46 248.523C1300.66 245.371 1298.75 242.613 1296.09 240.749C1293.42 238.886 1290.18 238.042 1286.94 238.37C1283.71 238.699 1280.7 240.179 1278.46 242.54L1229.46 293.43C1229.14 293.07 1228.81 292.72 1228.46 292.38C1227.62 291.52 1226.77 290.69 1225.89 289.91L1277.99 235.78C1279.26 234.503 1280.26 232.986 1280.94 231.318C1281.61 229.651 1281.95 227.865 1281.93 226.064C1281.91 224.264 1281.54 222.486 1280.82 220.834C1280.11 219.181 1279.07 217.687 1277.78 216.439C1276.48 215.191 1274.95 214.213 1273.27 213.562C1271.59 212.912 1269.8 212.602 1268 212.65C1266.2 212.699 1264.43 213.105 1262.79 213.845C1261.15 214.584 1259.67 215.644 1258.44 216.96L1201.5 276.11C1199.45 275.502 1197.38 275.001 1195.28 274.61L1252.03 215.61C1253.3 214.333 1254.3 212.816 1254.98 211.148C1255.65 209.481 1255.99 207.695 1255.97 205.894C1255.95 204.094 1255.58 202.316 1254.86 200.664C1254.15 199.011 1253.11 197.517 1251.82 196.269C1250.52 195.021 1248.99 194.043 1247.31 193.392C1245.63 192.742 1243.84 192.432 1242.04 192.48C1240.24 192.529 1238.47 192.935 1236.83 193.675C1235.19 194.415 1233.71 195.474 1232.48 196.79L1157.09 275.1L1159.63 231.1C1159.72 229.626 1159.51 228.15 1159.02 226.756C1158.54 225.363 1157.78 224.078 1156.8 222.977C1155.82 221.875 1154.63 220.978 1153.3 220.337C1151.97 219.696 1150.52 219.323 1149.05 219.24L1144.41 218.97C1142.94 218.889 1141.46 219.099 1140.07 219.589C1138.67 220.078 1137.39 220.837 1136.29 221.822C1135.19 222.808 1134.3 224 1133.66 225.331C1133.02 226.662 1132.65 228.106 1132.57 229.58ZM1139.17 331.43L1140.52 331.51L1139.91 332.15L1139.17 331.43Z" fill="#D6802B"/>
<path d="M1139.17 331.43L1139.91 332.15L1140.52 331.51L1139.17 331.43Z" fill="#D6802B"/>
<path d="M1177.46 268C1177.46 268 1242.12 288.35 1245.16 340.57" stroke="#030303" stroke-width="2.03" stroke-miterlimit="10"/>
<path d="M1214.39 404.036L1114.2 297.083L1070.26 338.246L1170.45 445.199L1214.39 404.036Z" fill="#395DA3"/>
<path d="M1078.53 347.48L1168.17 441.42L1138.16 469.99L1061.68 362.83L1078.53 347.48Z" fill="#962B35"/>
<path d="M1114.28 297C1114.28 297 1138.73 409.58 1170.54 445.1L1069.13 337.21L1114.28 297Z" fill="#2B4271"/>
<path d="M1128.39 302.45L1210.13 399.28L1123.49 307.19L1128.39 302.45Z" fill="#A85D23"/>
<path d="M891.33 398.25C891.33 398.25 760.16 648.47 862.82 769L841.82 837.4L580.94 684.71L825.49 369L891.33 398.25Z" fill="#962B35"/>
<path d="M245.81 1008.85C271.066 1008.85 291.54 988.376 291.54 963.12C291.54 937.864 271.066 917.39 245.81 917.39C220.554 917.39 200.08 937.864 200.08 963.12C200.08 988.376 220.554 1008.85 245.81 1008.85Z" fill="#D6802B"/>
<path d="M981.05 879.86C1022.71 879.86 1056.48 846.089 1056.48 804.43C1056.48 762.771 1022.71 729 981.05 729C939.391 729 905.62 762.771 905.62 804.43C905.62 846.089 939.391 879.86 981.05 879.86Z" fill="#C84348"/>
<path d="M318.43 423.89L437.42 496.57L305.89 571.58L318.43 423.89Z" fill="#C84348"/>
<path d="M331.93 902.08L273.6 714.4L214.9 831.97L331.93 902.08Z" fill="#D6802B"/>
<path d="M463.97 424.6L434.25 372.03L379.4 399.46L463.97 424.6Z" fill="#D6802B"/>
<path d="M912.47 937.62L1112.11 1042.35L1000.01 1201.89L925.56 1149.53L995.1 1052.16L899.38 1033.35L912.47 937.62Z" fill="#395DA3"/>
<path d="M205.17 683.63L304.46 624.5L296.5 656.88L205.17 683.63Z" fill="#962B35"/>
<path d="M712.47 294.99L811.76 235.87L803.8 268.25L712.47 294.99Z" fill="#962B35"/>
<path d="M1117.68 661.33L1087.97 603.19L1033.11 633.52L1117.68 661.33Z" fill="#D6802B"/>
<path d="M512.52 380.87L561.2 345.14L527.48 293.92L512.52 380.87Z" fill="#2B4271"/>
<path d="M821.13 152.95L1005.61 23.37L1096.17 196.05L1015.54 238.29L960.8 131.9L900.25 208.4L821.13 152.95Z" fill="#395DA3"/>
<path d="M962.52 431.07C734 623.42 651.7 1542.44 651.7 1542.44C618.12 1486.15 562.65 1461.77 510.56 1444.06C449.86 1423.41 393.75 1411.8 382.24 1369.21C360.85 1290.08 42.24 1347.82 42.24 1347.82L827.07 369.76L899 402.31L962.52 431.07Z" fill="#2B4271"/>
<path d="M962.52 431.07C734 623.42 651.7 1542.44 651.7 1542.44C618.12 1486.15 562.65 1461.77 510.56 1444.06C487.74 1166.76 896.93 401.84 896.93 401.84L898.99 402.31L962.52 431.07Z" fill="#395DA3"/>
</g>
<defs>
<clipPath id="clip0_2950_226284">
<rect width="1344.26" height="1665.05" fill="white"/>
</clipPath>
</defs>
</svg>
