<svg id="Capa_1" data-name="Capa 1" xmlns="http://www.w3.org/2000/svg" viewBox="0 0 1612.3 1663.62"><title>Mesa de trabajo 52</title><polygon points="638.97 1378.94 533.52 1416.06 551.13 1452.23 601.67 1445.93 559.96 1487.09 704.91 1596.33 646.52 1497.57 692.86 1448.37 638.97 1378.94" fill="#d6802b"/><polygon points="603.07 1392.33 677.17 1466.97 646.52 1497.57 583.08 1400.9 603.07 1392.33" fill="#a85d23"/><polygon points="1114.64 1393.04 1155.06 1497.27 1190.65 1478.52 1182.77 1428.21 1225.22 1468.61 1329.86 1320.3 1232.97 1381.76 1182.35 1336.99 1114.64 1393.04" fill="#d6802b"/><polygon points="1129.15 1428.5 1201.43 1352.08 1232.97 1381.76 1138.35 1448.21 1129.15 1428.5" fill="#a85d23"/><rect x="496.12" y="1010.78" width="17.11" height="533.23" fill="#030303"/><rect x="343.69" y="970.86" width="336.48" height="74.14" fill="#c84348"/><polygon points="363.65 765.55 352.25 976.56 768.56 996.52 557.55 1364.37 697.28 1492.68 1019.5 873.91 628.84 776.96 363.65 765.55" fill="#030303"/><path d="M893.5,634.89l-1.63,0,.5-.44C892.75,634.6,893.13,634.74,893.5,634.89Z" fill="#d6802b"/><path d="M937.21,699.58c0,1.84-.14,3.67-.31,5.47l76.7-1a14.76,14.76,0,0,1,14.94,14.56v.2A14.74,14.74,0,0,1,1014,733.55l-87.27,1.13c-.4.64-.82,1.28-1.25,1.91l76.63-1A14.75,14.75,0,0,1,1017,750.15v.2a14.74,14.74,0,0,1-14.55,14.74l-175.75,2.28,0-1.82-47.79-.85,2.41-135.82,71.31,1.26,59.84-52.67a12.23,12.23,0,0,1,17.25,1.1l3.34,3.8a12.22,12.22,0,0,1-1.1,17.25l-39.6,34.85-.5.44,1.63,0L1015,633.31A14.76,14.76,0,0,1,1030,647.87v.18a14.76,14.76,0,0,1-14.56,14.76L927.86,664c.75,1.25,1.44,2.53,2.1,3.84l87.55-1.14a14.75,14.75,0,0,1,14.94,14.55v.18a14.75,14.75,0,0,1-14.56,14.76l-80.68,1.05C937.22,698,937.22,698.78,937.21,699.58Z" fill="#d6802b"/><path d="M918.71,642.87s37.54,48.3,3,111.13" fill="none" stroke="#000" stroke-miterlimit="10" stroke-width="2.31"/><polygon points="560.81 492.1 591.85 612.69 822.15 620.13 826.7 779.46 465.25 762.46 396.49 528.73 560.81 492.1" fill="#c84348"/><polygon points="626.49 614.52 828.49 729.39 826.7 779.46 655.63 770.07 626.49 614.52" fill="#962b35"/><polygon points="577.15 352.69 427.23 360.89 355.46 752.67 655.63 770.07 577.15 352.69" fill="#c84348"/><path d="M401.87,503.79c-.46,6.8,77.24,236.58,252.48,267.19l-300.5-17.57Z" fill="#962b35"/><path d="M725.44,596.37l-60.15-99,51.42-29.75,19.66-67.05a10.41,10.41,0,0,1,12.92-7.07l2.25.66,1.9.55a10.43,10.43,0,0,1,7.06,12.93L748.09,450l-.4,1.37L745.18,453c.74-.23,1.48-.44,2.22-.62l.29-1,88.65-57.68a11.81,11.81,0,0,1,16.34,3.46l.83,1.26a11.82,11.82,0,0,1-3.46,16.36L786.71,456l-.06,0,0,0q1.7.82,3.33,1.77l.13-.1,25.06-16.3A10.71,10.71,0,0,1,830,444.58l2,3.11a10.7,10.7,0,0,1-3.14,14.82L808.73,475.6c.37.56.74,1.13,1.09,1.72q1.23,2,2.27,4.1l14-9.15a10.55,10.55,0,0,1,14.6,3.09l2.2,3.38a10.56,10.56,0,0,1-3.09,14.61l-21.59,14c0,1.3,0,2.58-.14,3.87l19.76-11.63a10.25,10.25,0,0,1,14,3.64l2.34,4a10.26,10.26,0,0,1-3.63,14.06l-58.25,34.32c-.64.43-1.3.84-2,1.25Z" fill="#d6802b"/><path d="M771.75,569.53,732,497.14,716.4,468.72l20-68.11a10.41,10.41,0,0,1,12.92-7.07l2.25.66-5.73,57.72.62,3.23.94,4.26Z" fill="#a85d23"/><polygon points="547.82 373.55 547.83 373.63 547.81 373.56 547.82 373.55" fill="#a85d23"/><polygon points="550.78 371.13 550.78 371.31 550.75 371.15 550.78 371.13" fill="#a85d23"/><polygon points="688.72 987.97 1093.63 1469.87 1250.46 1335.85 891.18 896.72 603.18 936.64 688.72 987.97" fill="#030303"/><polygon points="851.26 630.58 890.7 751.3 851.73 750.82 851.26 630.58" fill="#a85d23"/><path d="M826.49,664.91s48,16.2,71.63-18.95" fill="none" stroke="#000" stroke-miterlimit="10" stroke-width="2.31"/><rect x="735.62" y="666.02" width="172.34" height="60.21" transform="translate(130.37 1521.87) rotate(-90.33)" fill="#395da3"/><path d="M852.38,782.12s-59.7-98.53-61-146.2L792,784Z" fill="#2b4271"/><path d="M528.65,429.44H669.8a0,0,0,0,1,0,0V686.18a70.57,70.57,0,0,1-70.57,70.57h0a70.57,70.57,0,0,1-70.57-70.57V429.44a0,0,0,0,1,0,0Z" transform="translate(830.77 -217.59) rotate(61.23)" fill="#c84348"/><rect x="410.86" y="378.1" width="141.15" height="327.31" rx="70.57" transform="translate(1094.91 927.65) rotate(163.8)" fill="#c84348"/><rect x="225.89" y="793.21" width="39.92" height="835.49" fill="#2b4271"/><polygon points="1384.71 751.3 199.92 751.3 199.92 828.29 1327.99 828.29 1327.99 1611.58 1367.91 1611.58 1367.91 828.29 1384.71 828.29 1384.71 751.3" fill="#395da3"/><polygon points="182.18 432.42 360.91 526.18 260.56 669.02 193.9 622.14 256.16 534.97 170.46 518.12 182.18 432.42" fill="#395da3"/><circle cx="1233.14" cy="1017.45" r="40.94" fill="#d6802b"/><circle cx="124.8" cy="1112.39" r="67.53" fill="#c84348"/><polygon points="1538.6 765.7 1521.27 611.82 1364.29 621.46 1538.6 765.7" fill="#d6802b"/><circle cx="1460.28" cy="1149.29" r="40.94" fill="#d6802b"/><circle cx="1483.65" cy="938.77" r="36.85" fill="#c84348"/><path d="M114.24,789.77,203.34,965,111.4,943.5l24.14-31.87s-73.21-3.33-70.2-9.9,51.1-47.35,51.1-47.35l-45.5-25.62S116.27,792.28,114.24,789.77Z" fill="#d6802b"/><polygon points="847.22 1334.85 991.51 1410.54 910.5 1525.86 856.68 1488.02 906.95 1417.64 837.75 1404.04 847.22 1334.85" fill="#395da3"/><polygon points="400.25 1165.92 360.24 1344.19 310.48 1138.38 400.25 1165.92" fill="#395da3"/><polygon points="1028.99 966.34 1136.94 956.42 1133.41 1050.12 1089.67 1048.45 1092.29 990.97 1048.73 1008.4 1028.99 966.34" fill="#395da3"/><path d="M378,209.89l-69,199.6-52-87.1,42.66-5.11s-52.06-59.09-44.73-61.67,74.74,4.19,74.74,4.19l-14.14-54.3S377.56,213.33,378,209.89Z" fill="#d6802b"/><polygon points="907.75 695.16 907.75 735.79 1233.54 735.79 1233.54 728.36 1337.92 440.48 1299.72 426.63 1202.36 695.16 907.75 695.16" fill="#395da3"/><polygon points="907.75 695.16 1217.85 709.42 1299.72 426.63 1337.92 440.48 1233.54 735.79 907.75 735.79 907.75 695.16" fill="#2b4271"/><circle cx="528.43" cy="277.6" r="50.36" fill="#d6802b"/><path d="M492.69,272.17a17.07,17.07,0,0,1-18.82,13.26,14.1,14.1,0,0,1-1.56-.26,17.09,17.09,0,0,1,6.26-33.59l1.13.21a17.46,17.46,0,0,1,4.09,1.47A17.1,17.1,0,0,1,492.69,272.17Z" fill="#d6802b"/><path d="M473.87,285.43a14.1,14.1,0,0,1-1.56-.26,17.06,17.06,0,0,1-7-3.37c.86-5.66,10.85-25.46,13.28-30.22l1.13.21a17.46,17.46,0,0,1,4.09,1.47c-2.39,2.27-8.69,10.11-1,24.41C483,278.2,476.66,280.38,473.87,285.43Z" fill="#a85d23"/><polygon points="574.89 228.99 472.93 256.72 465.9 229.06 459.98 203.41 453.87 177.02 547.56 139.71 554.74 163.15 561.65 185.75 574.89 228.99" fill="#395da3"/><path d="M580,322.93a16.67,16.67,0,0,1-27.23,9,16.65,16.65,0,0,1-25.89-.29,16.65,16.65,0,0,1-23.64-10.84c-.3.13-.6.23-.9.34a16.66,16.66,0,0,1-22.24-14.84,16.64,16.64,0,0,1-.79-29.67,16.61,16.61,0,0,1-3.47-12.84,9.4,9.4,0,0,1,.21-1.18,14.72,14.72,0,0,1,.49-1.79,16.64,16.64,0,0,1,5-7.33c-.16-.29-.3-.59-.43-.89s-.29-.66-.41-1c0,0,0,0,0-.06a16.68,16.68,0,0,1,19.26-22A16.12,16.12,0,0,1,504,231c.26.12.5.26.75.4a16.66,16.66,0,0,1,16.78-6.09,17,17,0,0,1,3.5,1.2,29.32,29.32,0,1,1,9.16,18.72A16.66,16.66,0,0,1,509.57,256a16.05,16.05,0,0,1-2.42,2.52,16.66,16.66,0,0,1-6.84,22.32,16.55,16.55,0,0,1,3.62,9.55,16.68,16.68,0,0,1,9,11,16.65,16.65,0,0,1,19.54,5,16.65,16.65,0,0,1,18.44,2.32A16.67,16.67,0,0,1,580,322.93Z" fill="#c84348"/><path d="M527,227.39s-.53,24.73,27.12,25.61C554.09,253,536.92,251.45,527,227.39Z" fill="#962b35"/><path d="M502.38,321.1a16.66,16.66,0,0,1-22.24-14.84,16.64,16.64,0,0,1-.79-29.67,16.61,16.61,0,0,1-3.47-12.84l.7-3a16.64,16.64,0,0,1,5-7.33c-.16-.29-.3-.59-.43-.89l.14-.05a9.63,9.63,0,0,1-.55-.94s0,0,0-.06a16.68,16.68,0,0,1,19.26-22A16.12,16.12,0,0,1,504,231c-4.94,1.65-23,8.73-18.48,22.32,0,0-10,7.86-3.93,21.89,0,0-10.53,18.61.67,27.36C482.3,302.56,482.85,317.53,502.38,321.1Z" fill="#962b35"/><polygon points="561.65 185.75 465.9 229.06 459.98 203.41 554.74 163.15 561.65 185.75" fill="#d6802b"/><path d="M1456.09,218.44V340.8a54.3,54.3,0,0,1-54.3,54.3H1262.31a54.21,54.21,0,0,1-17.32-2.82l-45.53,34.9,21-51.75A54.09,54.09,0,0,1,1208,340.8V218.44a54.31,54.31,0,0,1,54.3-54.31h139.48A54.31,54.31,0,0,1,1456.09,218.44Z" fill="#395da3"/><rect x="1250.78" y="228.3" width="164.67" height="111.21" fill="#d6802b"/><polyline points="1250.78 228.3 1333.12 283.9 1415.45 228.3" fill="none" stroke="#fff" stroke-miterlimit="10" stroke-width="2.65"/><path d="M836.2,154.73V308.17a68.09,68.09,0,0,0,68.09,68.1H1079.2a67.83,67.83,0,0,0,21.72-3.54L1158,416.5l-26.36-64.9a67.82,67.82,0,0,0,15.64-43.43V154.73a68.11,68.11,0,0,0-68.1-68.11H904.29A68.1,68.1,0,0,0,836.2,154.73Z" fill="#395da3"/><rect x="887.15" y="167.09" width="206.5" height="139.46" transform="translate(1980.81 473.63) rotate(-180)" fill="#d6802b"/><polyline points="1093.66 167.09 990.41 236.81 887.15 167.09" fill="none" stroke="#fff" stroke-miterlimit="10" stroke-width="3.32"/><path d="M1197.94,641.72l-18.55-37.1a29.79,29.79,0,0,0,2.87-12.8V474.91A30,30,0,0,0,1152.32,445H986.93A30,30,0,0,0,957,474.91V591.82a29.94,29.94,0,0,0,29.94,29.94h165.39a29.85,29.85,0,0,0,14.93-4Z" fill="#395da3"/><rect x="999.63" y="482.04" width="139.46" height="94.18" fill="#d6802b"/><polyline points="999.63 482.04 1069.36 529.13 1139.09 482.04" fill="none" stroke="#fff" stroke-miterlimit="10" stroke-width="2.24"/><polygon points="199.92 751.3 1384.71 828.29 199.92 828.29 199.92 751.3" fill="#2b4271"/></svg>