<svg width="278" height="340" viewBox="0 0 278 340" fill="none" xmlns="http://www.w3.org/2000/svg">
<path d="M137.124 170.233C136.833 170.822 136.319 171.271 135.697 171.483C135.075 171.694 134.395 171.651 133.804 171.362L120.562 164.84C120.577 165.085 120.587 165.331 120.583 165.577L133.818 172.104C134.391 172.406 134.822 172.921 135.022 173.537C135.221 174.154 135.171 174.823 134.884 175.404C134.597 175.984 134.094 176.43 133.483 176.645C132.872 176.861 132.202 176.83 131.613 176.558L119.419 170.543C119.36 170.662 119.3 170.782 119.237 170.902C119.089 171.176 118.933 171.442 118.77 171.699L130.363 177.417C130.668 177.554 130.942 177.75 131.169 177.995C131.396 178.24 131.572 178.528 131.685 178.842C131.799 179.156 131.848 179.489 131.83 179.823C131.811 180.156 131.726 180.483 131.579 180.782C131.431 181.082 131.225 181.349 130.973 181.567C130.72 181.786 130.426 181.951 130.108 182.053C129.79 182.155 129.455 182.192 129.122 182.162C128.789 182.131 128.466 182.034 128.172 181.876L114.978 175.37C114.867 175.435 114.757 175.499 114.641 175.56L126.224 181.273C126.816 181.564 127.268 182.078 127.481 182.703C127.694 183.327 127.65 184.01 127.359 184.602C127.068 185.194 126.554 185.647 125.929 185.859C125.305 186.072 124.622 186.028 124.03 185.737L97.4633 172.636L97.5998 172.36L90.493 168.573L101.243 148.36L111.86 154.006L124.872 150.674C125.401 150.539 125.962 150.619 126.432 150.898C126.901 151.176 127.241 151.63 127.377 152.159L127.589 152.984C127.724 153.514 127.644 154.075 127.365 154.545C127.087 155.014 126.633 155.355 126.104 155.49L117.486 157.695L117.38 157.722L117.622 157.843L135.992 166.903C136.285 167.047 136.547 167.248 136.762 167.493C136.978 167.738 137.143 168.024 137.248 168.333C137.353 168.643 137.397 168.969 137.375 169.295C137.354 169.621 137.269 169.94 137.124 170.233Z" fill="#D6802B"/>
<path d="M137.48 10.2762L147.35 40.6514H179.288L153.449 59.4253L163.318 89.8004L137.48 71.0266L111.641 89.8004L121.51 59.4253L95.6719 40.6514H127.611L137.48 10.2762Z" fill="#C84348"/>
<path d="M146.252 67.5533C146.252 68.1029 146.068 68.6368 145.729 69.07L127.569 92.4749L127.326 92.2862L122.196 98.4947L104.548 83.9087L112.206 74.6398L111.559 61.2251C111.546 60.9551 111.586 60.6851 111.677 60.4306C111.768 60.1761 111.909 59.9421 112.091 59.742C112.272 59.5418 112.492 59.3794 112.736 59.264C112.981 59.1487 113.245 59.0826 113.515 59.0697L114.368 59.0275C114.913 59.0014 115.447 59.1928 115.851 59.5597C116.255 59.9266 116.497 60.4389 116.524 60.9841L116.952 69.8638V69.975L117.12 69.761L129.681 53.5824C130.09 53.0763 130.681 52.7508 131.328 52.6758C131.975 52.6008 132.625 52.7823 133.139 53.1813C133.654 53.5803 133.991 54.165 134.079 54.8099C134.167 55.4549 133.999 56.1087 133.611 56.6311L124.562 68.2864C124.805 68.3217 125.046 68.3639 125.289 68.4144L134.334 56.7575C134.738 56.2365 135.332 55.8975 135.987 55.8151C136.641 55.7326 137.301 55.9133 137.822 56.3176C138.343 56.7219 138.682 57.3165 138.764 57.9708C138.847 58.625 138.666 59.2852 138.262 59.8061L129.928 70.5429C130.033 70.6255 130.139 70.7115 130.243 70.794C130.48 70.9918 130.709 71.1974 130.929 71.4108L138.86 61.1965C139.059 60.9345 139.308 60.7145 139.592 60.5493C139.876 60.3841 140.19 60.2769 140.516 60.234C140.842 60.1911 141.174 60.2133 141.491 60.2993C141.808 60.3853 142.105 60.5334 142.365 60.7351C142.625 60.9367 142.842 61.1879 143.004 61.474C143.166 61.7602 143.27 62.0756 143.309 62.402C143.348 62.7285 143.322 63.0595 143.232 63.3759C143.143 63.6922 142.991 63.9877 142.787 64.2451L133.764 75.8582C133.806 75.9796 133.845 76.1026 133.882 76.2256L141.803 66.0214C142.12 65.611 142.558 65.3104 143.055 65.1615C143.552 65.0126 144.083 65.023 144.573 65.1912C145.064 65.3594 145.49 65.677 145.791 66.0994C146.092 66.5218 146.253 67.0278 146.252 67.5465V67.5533Z" fill="#D6802B"/>
<path d="M109.213 78.5463L129.989 89.1297L127.485 92.7581L109.213 78.5463Z" fill="#A85D23"/>
<path d="M48.1491 11.1492L58.0197 41.5244H89.9571L64.1186 60.2983L73.9875 90.6734L48.1491 71.8996L22.3106 90.6734L32.1812 60.2983L6.34106 41.5244H38.2802L48.1491 11.1492Z" fill="#C84348"/>
<path d="M62.7519 90.4796C62.7519 90.4796 39.9907 89.7886 37.81 84.502C35.6293 79.2153 12.5159 75.6493 15.7348 65.8781C18.9536 56.107 28.954 56.1036 39.4161 60.5914C49.8782 65.0793 61.493 76.4548 64.0209 75.8802C66.5488 75.3055 62.7519 90.4796 62.7519 90.4796Z" fill="#395DA3"/>
<path d="M47.4143 88.8516L47.4632 88.8112C45.36 88.6022 42.5911 87.8371 39.0655 85.9681C39.0655 85.9681 38.2229 85.5485 36.6034 83.0257C34.9838 80.5028 27.4119 79.1816 23.1465 76.1161C18.8811 73.0506 14.6781 72.7456 15.5797 66.1444C15.5797 66.1444 17.6829 59.1168 22.8482 58.8152C22.8482 58.8152 29.8741 75.9358 40.8688 76.1161C40.8688 76.1161 44.0505 84.8255 54.4436 82.9027C53.4526 83.9239 53.7829 84.9755 53.7829 84.9755C54.8042 87.7983 56.9647 86.6878 56.9647 86.6878C57.3018 88.7 60.0285 90.2925 60.0285 90.2925C56.5468 90.2336 47.4143 88.8516 47.4143 88.8516Z" fill="#2B4271"/>
<path d="M118.061 203H96.4353V206.244H118.061V203Z" fill="#395DA3"/>
<path d="M104.241 226.549H82.6161V229.794H104.241V226.549Z" fill="#395DA3"/>
<path d="M120.801 160.964C120.801 160.964 122.742 171.089 112.755 177.886" stroke="black" stroke-width="2.31" stroke-miterlimit="10"/>
<path d="M117.626 157.843L117.383 157.722L117.489 157.695C117.535 157.744 117.58 157.792 117.626 157.843Z" fill="#D6802B"/>
<path d="M107.445 151.527L101.226 174.33L97.17 172.606L107.445 151.527Z" fill="#A85D23"/>
<path d="M105.266 157.224C105.266 157.224 111.23 163.327 117.471 159.86" stroke="black" stroke-width="2.31" stroke-miterlimit="10"/>
<path d="M144.285 130.939L139.268 128.055L23.6961 329.15L28.7133 332.034L144.285 130.939Z" fill="#395DA3"/>
<path d="M70.4435 107.027L74.0247 131.435L108.04 150.168L96.5347 174.443L43.5585 144.24L51.1118 103.883L70.4435 107.027Z" fill="#C84348"/>
<path d="M117.12 69.761L116.952 69.975V69.8638C117.009 69.8284 117.065 69.7913 117.12 69.761Z" fill="#D6802B"/>
<path d="M58.0214 84.8424C58.0214 85.5576 57.7373 86.2434 57.2316 86.7491C56.726 87.2548 56.0401 87.5388 55.325 87.5388C55.0977 87.5381 54.8714 87.5098 54.6509 87.4546C54.0162 87.3023 53.4583 86.925 53.0806 86.3926C52.703 85.8603 52.5313 85.209 52.5974 84.5596C52.6634 83.9103 52.9628 83.3069 53.4399 82.8615C53.917 82.4161 54.5395 82.1589 55.1919 82.1376H55.3284C56.0428 82.1398 56.7274 82.4246 57.2326 82.9298C57.7378 83.435 58.0226 84.1195 58.0248 84.834L58.0214 84.8424Z" fill="#D6802B"/>
<path d="M82.9296 169.05L32.8419 161.384L50.8827 97.4802L51.0782 96.7859L76.3605 97.7802L76.3622 97.8072L82.9296 169.05Z" fill="#C84348"/>
<path d="M129.156 93.7507L88.946 139.595L50.9231 124.101L63.3587 98.5992L82.2858 107.078L82.51 107.179L82.6364 107.027L107.683 77.611L129.156 93.7507Z" fill="#C84348"/>
<path d="M76.4043 97.861L53.1005 98.5351C53.1005 98.5351 51.9528 98.0447 50.9248 97.5375L51.1203 96.8431L76.3992 97.8374L76.4043 97.861Z" fill="#962B35"/>
<path d="M85.5974 113.539L82.8673 112.863L82.2859 107.078L82.51 107.179L82.6364 107.027L85.5974 113.539Z" fill="#962B35"/>
<path d="M121.788 88.7825L94.4063 124.18L53.8572 125.407L88.946 139.595L129.158 93.749L121.6 88.587L121.788 88.7825Z" fill="#962B35"/>
<path d="M44.5646 120.361C44.3792 121.494 53.7829 161.276 82.7021 169.183L32.5604 161.485L44.5646 120.361Z" fill="#962B35"/>
<path d="M45.6937 290.536L36.6809 307.796L43.2231 310.307L48.9092 303.497L48.4912 313.696L79.9315 310.374L60.7566 304.741L60.8088 292.967L45.6937 290.536Z" fill="#D6802B"/>
<path d="M33.0576 159.946L38.5499 303.281L66.409 303.679L65.5444 166.219L33.0576 159.946Z" fill="#030303"/>
<path d="M57.7332 285.062L41.5463 295.885L46.083 301.227L54.3374 297.978L49.0794 306.728L78.2597 318.892L64.1372 304.751L69.8284 294.447L57.7332 285.062Z" fill="#D6802B"/>
<path d="M52.1229 288.744L67.9863 298.262L64.1372 304.751L48.7592 290.967L52.1229 288.744Z" fill="#A85D23"/>
<path d="M34.4867 159.953L77.712 229.441L42.2541 280.618L69.7239 301.978C69.7239 301.978 114.102 239.005 114.929 240.392C115.757 241.779 81.5965 166.957 81.5965 166.957L34.4867 159.953Z" fill="#030303"/>
<path d="M52.1836 289.01L41.8917 280.813L64.5535 248.104" stroke="white" stroke-width="2.31" stroke-miterlimit="10"/>
<path d="M39.0453 167.948L76.2171 226.758" stroke="white" stroke-width="2.31" stroke-miterlimit="10"/>
<path d="M54.4183 80.6714C54.3762 80.6158 54.3526 80.5787 54.3458 80.5686L54.4183 80.6714Z" fill="#A85D23"/>
<path d="M57.7181 85.8738C57.4029 86.2283 57.1287 86.6172 56.9008 87.0332C56.4409 87.3654 55.8872 87.5425 55.32 87.5388C55.0927 87.538 54.8663 87.5097 54.6459 87.4545C55.1599 86.5883 56.0817 84.5525 55.1868 82.1375H55.3233C55.9358 82.1351 56.5306 82.3427 57.0086 82.7257C56.9564 83.4082 57.0726 84.4733 57.7181 85.8738Z" fill="#A85D23"/>
<path d="M139.644 165.583H118.018V168.828H139.644V165.583Z" fill="#395DA3"/>
<path d="M160.159 134.093L155.165 131.209L39.5931 331.386L44.5874 334.269L160.159 134.093Z" fill="#395DA3"/>
<path d="M128.471 183.965H106.845V187.209H128.471V183.965Z" fill="#395DA3"/>
<path d="M57.413 309.308H35.7877V312.552H57.413V309.308Z" fill="#395DA3"/>
<path d="M228.836 9.70831L238.705 40.0835H270.644L244.806 58.8556L254.675 89.2308L228.836 70.4587L202.998 89.2308L212.867 58.8556L187.028 40.0835H218.967L228.836 9.70831Z" fill="#C84348"/>
<path d="M79.7545 135.909L82.697 166.303L96.5347 174.443L91.5884 141.194L88.9459 139.595L79.7545 135.788V135.909Z" fill="#962B35"/>
<path d="M144.593 225.006L170.395 177.65L159.988 166.51L131.401 212.491L144.593 225.006Z" fill="#395DA3"/>
<path d="M176.034 98.0768L206.153 113.878L189.241 137.95L178.007 130.05L188.501 115.359L174.059 112.519L176.034 98.0768Z" fill="#395DA3"/>
<path d="M177.026 157.917C180.837 157.917 183.926 154.828 183.926 151.018C183.926 147.207 180.837 144.118 177.026 144.118C173.216 144.118 170.127 147.207 170.127 151.018C170.127 154.828 173.216 157.917 177.026 157.917Z" fill="#D6802B"/>
<path d="M201.442 167.946C207.728 167.946 212.823 162.851 212.823 156.566C212.823 150.28 207.728 145.185 201.442 145.185C195.157 145.185 190.062 150.28 190.062 156.566C190.062 162.851 195.157 167.946 201.442 167.946Z" fill="#C84348"/>
<path d="M240.037 152.322L237.116 126.389L210.661 128.014L240.037 152.322Z" fill="#D6802B"/>
<path d="M227.139 116.032C230.95 116.032 234.039 112.943 234.039 109.132C234.039 105.322 230.95 102.233 227.139 102.233C223.329 102.233 220.24 105.322 220.24 109.132C220.24 112.943 223.329 116.032 227.139 116.032Z" fill="#D6802B"/>
<path d="M30.56 113.035C34.672 113.035 38.0055 109.702 38.0055 105.59C38.0055 101.478 34.672 98.1442 30.56 98.1442C26.448 98.1442 23.1145 101.478 23.1145 105.59C23.1145 109.702 26.448 113.035 30.56 113.035Z" fill="#C84348"/>
<path d="M184.612 188.247C188.041 188.247 190.822 185.466 190.822 182.037C190.822 178.607 188.041 175.826 184.612 175.826C181.182 175.826 178.401 178.607 178.401 182.037C178.401 185.466 181.182 188.247 184.612 188.247Z" fill="#C84348"/>
<path d="M64.3748 93.0716C68.7735 93.0716 72.3394 89.5057 72.3394 85.107C72.3394 80.7083 68.7735 77.1425 64.3748 77.1425C59.9761 77.1425 56.4103 80.7083 56.4103 85.107C56.4103 89.5057 59.9761 93.0716 64.3748 93.0716Z" fill="#D6802B"/>
<path d="M72.3496 78.0491C72.3501 78.8993 72.1087 79.7322 71.6538 80.4504C71.1988 81.1687 70.549 81.7427 69.7801 82.1056C69.0112 82.4685 68.155 82.6053 67.3113 82.4999C66.4677 82.3946 65.6714 82.0515 65.0153 81.5107C64.6709 82.2788 64.0733 82.9055 63.3224 83.2861C62.5715 83.6667 61.7128 83.7781 60.8896 83.6018C60.0665 83.4254 59.3288 82.972 58.7997 82.3172C58.2706 81.6624 57.9822 80.8459 57.9827 80.004C57.9822 79.8117 57.9963 79.6196 58.0248 79.4294C57.1052 79.1562 56.2797 78.6326 55.6406 77.9171C55.0015 77.2017 54.5739 76.3226 54.4058 75.3781C54.2376 74.4336 54.3354 73.4609 54.6883 72.5689C55.0412 71.6768 55.6353 70.9004 56.4041 70.3266C57.1729 69.7528 58.0862 69.4041 59.0418 69.3195C59.9974 69.2349 60.9577 69.4178 61.8153 69.8477C62.673 70.2776 63.3941 70.9375 63.8982 71.7537C64.4023 72.5699 64.6695 73.5103 64.6698 74.4696C64.6698 74.6247 64.6631 74.778 64.6496 74.9297C65.2706 74.2886 66.0688 73.8475 66.9421 73.663C67.8153 73.4785 68.7238 73.5589 69.551 73.8941C70.3783 74.2292 71.0866 74.8037 71.5852 75.544C72.0838 76.2843 72.3499 77.1566 72.3496 78.0491Z" fill="#395DA3"/>
</svg>
